<?xml version="1.0" encoding="utf-8"?>
<!-- Generator: Adobe Illustrator 24.0.2, SVG Export Plug-In . SVG Version: 6.00 Build 0)  -->
<svg version="1.1" id="Слой_1" xmlns="http://www.w3.org/2000/svg" xmlns:xlink="http://www.w3.org/1999/xlink" x="0px" y="0px"
	 viewBox="0 0 32 32" style="enable-background:new 0 0 32 32;" xml:space="preserve">
<style type="text/css">
	.st0{fill:#231F20;}
</style>
<path class="st0" d="M31.4,6.2l-5.7-5.7c-0.8-0.8-2-0.8-2.8,0c0,0-22.3,22.3-22.6,22.6C0,23.5,0,24,0,24v7c0,0.6,0.4,1,1,1h7
	c0,0,0.4,0,0.8-0.3C9.1,31.4,31.4,9.1,31.4,9.1C32.2,8.3,32.2,7,31.4,6.2z M3,30l-1-1v-4.6L7.6,30H3z M9,28.6L3.4,23L17.3,9.1
	l5.7,5.7L9,28.6z M24.3,13.3l-5.7-5.7l1.4-1.4l5.7,5.7L24.3,13.3z M29.3,8.4l-2.1,2.1l-5.7-5.7l2.1-2.1c0.4-0.4,1-0.4,1.4,0L29.3,7
	C29.7,7.3,29.7,8,29.3,8.4z"/>
</svg>
